<?xml version="1.0" encoding="UTF-8" standalone="no"?>
<!DOCTYPE svg PUBLIC "-//W3C//DTD SVG 1.1//EN" "http://www.w3.org/Graphics/SVG/1.1/DTD/svg11.dtd">
<svg width="100%" height="100%" viewBox="0 0 128 128" version="1.1" xmlns="http://www.w3.org/2000/svg" xmlns:xlink="http://www.w3.org/1999/xlink" xml:space="preserve" xmlns:serif="http://www.serif.com/" style="fill-rule:evenodd;clip-rule:evenodd;stroke-linejoin:round;stroke-miterlimit:2;">
    <g transform="matrix(0.1,0,0,-0.1,0,128)">
        <path d="M883,1123C871,1113 855,1090 849,1072C840,1045 841,1034 860,997C888,943 905,930 951,930C981,930 994,937 1019,965C1058,1010 1061,1066 1027,1106C997,1141 917,1150 883,1123ZM978,1098C980,1086 973,1079 956,1074C942,1071 930,1064 930,1059C930,1054 921,1050 910,1050C885,1050 884,1076 907,1102C928,1125 973,1122 978,1098Z" style="fill:white;fill-rule:nonzero;"/>
        <path d="M773,923C777,902 789,873 800,858C818,834 819,825 810,791C784,695 595,489 473,427C432,405 433,405 415,440C397,474 353,500 312,500C264,500 266,486 317,470C361,456 368,450 397,391C422,342 430,314 430,273C430,217 441,205 461,241C471,261 468,317 454,353C451,363 456,371 470,375C503,385 620,467 668,514C725,568 828,712 848,765C863,807 864,808 902,803C944,797 990,820 990,846C990,862 967,862 914,845C888,837 829,885 810,930C803,946 791,960 782,960C771,960 769,952 773,923Z" style="fill:white;fill-rule:nonzero;"/>
        <path d="M189,371C149,330 148,264 188,220C210,194 223,189 259,188C319,187 351,220 358,289C362,335 360,342 332,370C290,412 231,412 189,371ZM270,358C269,336 210,278 194,284C173,292 177,318 205,345C230,371 270,379 270,358Z" style="fill:white;fill-rule:nonzero;"/>
    </g>
</svg>
